<?xml version="1.0" encoding="utf-8"?>
<!-- Generator: Adobe Illustrator 25.0.1, SVG Export Plug-In . SVG Version: 6.00 Build 0)  -->
<svg version="1.0" id="Layer_1" xmlns="http://www.w3.org/2000/svg" xmlns:xlink="http://www.w3.org/1999/xlink" x="0px" y="0px"
	 viewBox="0 0 1221 867" style="enable-background:new 0 0 1221 867;" xml:space="preserve">
<style type="text/css">
	.st0{fill:#FEDA08;}
	.st1{fill:#010101;}
</style>
<path class="st0" d="M385.8,59h449.4C917.9,59,985,126.1,985,208.8v449.4c0,82.7-67.1,149.8-149.8,149.8H385.8
	C303.1,808,236,740.9,236,658.2V208.8C236,126.1,303.1,59,385.8,59z"/>
<path class="st1" d="M752.8,430.8c23.6-6.1,44.6-23.8,44.6-59.3c0-59.1-50.2-72.8-114.4-72.8H427v266h107.7v-90.3h127.8
	c19.7,0,31.2,7.8,31.2,27.1v63.1h107.8v-66.5C801.5,462,781.1,439.1,752.8,430.8z M664.4,402.7H534.7v-26h129.7
	c14.1,0,22.7,1.9,22.7,13S678.5,402.7,664.4,402.7z"/>
</svg>
